<svg width="40" height="40" viewBox="0 0 40 40" fill="none" xmlns="http://www.w3.org/2000/svg">
<rect width="40" height="40" rx="20" fill="#FFCCC8"/>
<circle cx="18" cy="16" r="2" stroke="#EA4335" stroke-width="1.5"/>
<path d="M24.0016 22C24.6045 20.6793 25 19.3127 25 18C25 12.4772 21.866 10 18 10C14.134 10 11 12.4772 11 18C11 21.2811 13.4706 24.8989 15.4763 27.2954C16.817 28.8973 19.183 28.8973 20.5237 27.2954C20.6801 27.1085 20.8393 26.9142 21 26.7133M24.0016 22H23C21.8954 22 21 22.8954 21 24V26.7133M24.0016 22H27C28.1046 22 29 22.8954 29 24V28C29 29.1046 28.1046 30 27 30H23C21.8954 30 21 29.1046 21 28V26.7133" stroke="#EA4335" stroke-width="1.5"/>
<path d="M26 24L24 24" stroke="#EA4335" stroke-width="1.5" stroke-linecap="round" stroke-linejoin="round"/>
</svg>
