<svg width="40" height="40" viewBox="0 0 40 40" fill="none" xmlns="http://www.w3.org/2000/svg">
<rect width="40" height="40" rx="20" fill="#CEFEDB"/>
<path d="M22 27V15M22 27H24M22 27H17M22 15C22 12.7909 20.2091 11 18 11H14C11.7909 11 10 12.7909 10 15V23C10 24.8652 11.2767 26.4323 13.0038 26.875M22 15H25.2091C25.7172 15 26.2063 15.1934 26.577 15.5409L29.3679 18.1574C29.7712 18.5355 30 19.0636 30 19.6165V25C30 26.1046 29.1046 27 28 27M28 27C28 28.1046 27.1046 29 26 29C24.8954 29 24 28.1046 24 27M28 27C28 25.8954 27.1046 25 26 25C24.8954 25 24 25.8954 24 27M17 27C17 28.1046 16.1046 29 15 29C13.8954 29 13 28.1046 13 27C13 26.958 13.0013 26.9163 13.0038 26.875M17 27C17 25.8954 16.1046 25 15 25C13.9374 25 13.0684 25.8286 13.0038 26.875" stroke="#34A853" stroke-width="1.5"/>
<path d="M18 16H16" stroke="#34A853" stroke-width="1.5" stroke-linecap="round" stroke-linejoin="round"/>
<path d="M18 20H14" stroke="#34A853" stroke-width="1.5" stroke-linecap="round" stroke-linejoin="round"/>
</svg>
