<svg width="22" height="22" viewBox="0 0 22 22" fill="none" xmlns="http://www.w3.org/2000/svg">
<path d="M12.1111 18.7778C12.1111 20.0051 13.106 21 14.3333 21C15.5606 21 16.5556 20.0051 16.5556 18.7778M12.1111 18.7778C12.1111 17.5505 13.106 16.5556 14.3333 16.5556C15.5606 16.5556 16.5556 17.5505 16.5556 18.7778M12.1111 18.7778H1M16.5556 18.7778H21M12.1111 3.22222C12.1111 4.44952 13.106 5.44444 14.3333 5.44444C15.5606 5.44444 16.5556 4.44952 16.5556 3.22222M12.1111 3.22222C12.1111 1.99492 13.106 1 14.3333 1C15.5606 1 16.5556 1.99492 16.5556 3.22222M12.1111 3.22222L1 3.22222M16.5556 3.22222H21M9.88889 11C9.88889 12.2273 8.89397 13.2222 7.66667 13.2222C6.43937 13.2222 5.44444 12.2273 5.44444 11M9.88889 11C9.88889 9.7727 8.89397 8.77778 7.66667 8.77778C6.43937 8.77778 5.44444 9.7727 5.44444 11M9.88889 11L21 11M5.44444 11H1" stroke="#666666" stroke-width="1.5" stroke-linecap="round" stroke-linejoin="round"/>
</svg>
