<svg width="22" height="22" viewBox="0 0 22 22" fill="none" xmlns="http://www.w3.org/2000/svg">
<path d="M1 3.22222C1 1.99492 1.99492 1 3.22222 1H6.55556C7.78286 1 8.77778 1.99492 8.77778 3.22222V4.33333C8.77778 5.56063 7.78286 6.55556 6.55556 6.55556H3.22222C1.99492 6.55556 1 5.56063 1 4.33333V3.22222Z" stroke="#00ADB5" stroke-width="2" stroke-linecap="round" stroke-linejoin="round"/>
<path d="M1 13.2222C1 11.9949 1.99492 11 3.22222 11H6.55556C7.78286 11 8.77778 11.9949 8.77778 13.2222V18.7778C8.77778 20.0051 7.78286 21 6.55556 21H3.22222C1.99492 21 1 20.0051 1 18.7778V13.2222Z" stroke="#00ADB5" stroke-width="2" stroke-linecap="round" stroke-linejoin="round"/>
<path d="M13.2222 3.22222C13.2222 1.99492 14.2171 1 15.4444 1H18.7778C20.0051 1 21 1.99492 21 3.22222V8.77778C21 10.0051 20.0051 11 18.7778 11H15.4444C14.2171 11 13.2222 10.0051 13.2222 8.77778V3.22222Z" stroke="#00ADB5" stroke-width="2" stroke-linecap="round" stroke-linejoin="round"/>
<path d="M13.2222 17.6667C13.2222 16.4394 14.2171 15.4444 15.4444 15.4444H18.7778C20.0051 15.4444 21 16.4394 21 17.6667V18.7778C21 20.0051 20.0051 21 18.7778 21H15.4444C14.2171 21 13.2222 20.0051 13.2222 18.7778V17.6667Z" stroke="#00ADB5" stroke-width="2" stroke-linecap="round" stroke-linejoin="round"/>
</svg>
